#!OML:ASF E:\emotionWalksFemale\Project 1\Capture day 1\Session 1\Female1.ASF
:FULLY-SPECIFIED
:DEGREES
1372
root 25.5562 15.5951 -29.5482 356.911 13.8187 6.19646
lowerback 4.29081 -2.73647 3.02569
upperback -6.6916 -3.01109 4.45613
thorax -9.42342 -1.48009 3.42415
lowerneck -10.8064 -4.95659 -5.55379
upperneck 22.5345 -8.8436 12.3163
head 9.7101 -3.31179 4.18353
rclavicle 5.56597e-015 -2.8625e-014
rhumerus 22.3482 7.4998 -39.5416
rradius 26.2297
rwrist 26.4905
rhand -10.0033 -51.1723
rfingers 7.12502
rthumb -164.019 -260.533
lclavicle 5.56597e-015 -2.8625e-014
lhumerus 22.2361 -11.869 59.9189
lradius 26.8857
lwrist -32.7174
lhand -6.24395 -40.9651
lfingers 7.12502
lthumb 19.5978 -11.9329
rfemur 12.7616 18.0284 30.6075
rtibia 15.156
rfoot -18.7812 -15.0142
rtoes 3.8273
lfemur -20.0273 -17.9215 -17.4318
ltibia 31.1065
lfoot -26.5225 21.8105
ltoes -25.3512
1373
root 25.5939 15.6043 -29.4688 356.894 12.9152 6.05514
lowerback 4.4077 -2.75263 3.15286
upperback -6.72294 -3.00979 4.50923
thorax -9.53321 -1.48555 3.42036
lowerneck -10.897 -4.94737 -5.43264
upperneck 22.6244 -8.78469 11.9765
head 9.72995 -3.30569 4.0485
rclavicle -4.77083e-014 3.81667e-014
rhumerus 22.4595 8.07154 -39.271
rradius 26.3575
rwrist 26.2988
rhand -9.74594 -50.9022
rfingers 7.12502
rthumb -163.772 -260.243
lclavicle -4.77083e-014 3.81667e-014
lhumerus 21.9871 -11.498 60.0614
lradius 27.0715
lwrist -33.1393
lhand -5.88976 -40.8394
lfingers 7.12502
lthumb 19.9383 -11.8422
rfemur 13.3282 18.2014 30.6649
rtibia 14.5131
rfoot -18.1755 -14.6144
rtoes 3.37798
lfemur -20.4698 -19.1084 -16.9863
ltibia 30.6638
lfoot -26.3934 23.3307
ltoes -27.4033
1374
root 25.6298 15.618 -29.391 356.916 11.9575 5.99328
lowerback 4.55236 -2.7099 3.27123
upperback -6.78821 -2.93658 4.44356
thorax -9.70443 -1.46038 3.2891
lowerneck -10.7751 -4.90582 -5.22174
upperneck 22.5565 -8.72033 11.7859
head 9.65663 -3.28643 3.95265
rclavicle -1.66979e-014 6.67916e-014
rhumerus 22.392 8.46797 -39.2734
rradius 26.4559
rwrist 26.1771
rhand -10.553 -51.4506
rfingers 7.12502
rthumb -164.549 -260.853
lclavicle -1.66979e-014 6.67916e-014
lhumerus 21.9075 -11.3036 60.259
lradius 27.0335
lwrist -33.516
lhand -5.81628 -41.0176
lfingers 7.12502
lthumb 20.009 -12.0278
rfemur 13.8435 18.372 30.6021
rtibia 13.8933
rfoot -17.5686 -14.1278
rtoes 3.03083
lfemur -20.8996 -20.1306 -16.6086
ltibia 30.2552
lfoot -26.9774 22.7376
ltoes -25.3583
1375
root 25.6643 15.623 -29.3085 356.874 10.9955 5.94727
lowerback 4.63524 -2.67674 3.31984
upperback -6.75454 -2.89089 4.38978
thorax -9.72304 -1.44463 3.20191
lowerneck -10.7262 -4.84164 -5.09126
upperneck 22.3661 -8.61238 11.6856
head 9.55846 -3.24579 3.90449
rclavicle -3.26007e-014 0
rhumerus 22.5453 8.43586 -39.5871
rradius 26.3674
rwrist 26.3393
rhand -11.2328 -52.4153
rfingers 7.12502
rthumb -165.204 -261.867
lclavicle -3.26007e-014 0
lhumerus 21.9586 -11.0417 60.4876
lradius 26.9037
lwrist -33.9579
lhand -6.03787 -41.1621
lfingers 7.12502
lthumb 19.7959 -12.1502
rfemur 14.3992 18.0406 30.3653
rtibia 13.2294
rfoot -17.0168 -13.0418
rtoes 3.13213
lfemur -21.2118 -21.3084 -16.1994
ltibia 29.8694
lfoot -27.8561 24.0469
ltoes -24.9473
1376
root 25.7007 15.6235 -29.2219 356.799 10.0997 5.85865
lowerback 4.59049 -2.66356 3.34279
upperback -6.62946 -2.88032 4.41372
thorax -9.55786 -1.44206 3.20255
lowerneck -10.8352 -4.83172 -4.97724
upperneck 22.1403 -8.55287 11.5131
head 9.48085 -3.23168 3.82393
rclavicle 7.95139e-015 -1.59028e-014
rhumerus 22.804 8.43609 -39.6672
rradius 26.3065
rwrist 26.1892
rhand -10.6723 -52.3463
rfingers 7.12502
rthumb -164.664 -261.758
lclavicle 7.95139e-015 -1.59028e-014
lhumerus 22.1133 -11.2002 60.3735
lradius 26.9096
lwrist -33.6644
lhand -6.14899 -41.0316
lfingers 7.12502
lthumb 19.6891 -12.0087
rfemur 15.0109 17.6975 30.2031
rtibia 12.6245
rfoot -16.5475 -12.0168
rtoes 3.5629
lfemur -21.4677 -22.677 -15.739
ltibia 29.491
lfoot -29.1994 23.1481
ltoes -19.4152
1377
root 25.7381 15.633 -29.1408 356.903 9.25018 5.73105
lowerback 4.42612 -2.63436 3.48538
upperback -6.59547 -2.84341 4.39268
thorax -9.43224 -1.43678 3.0835
lowerneck -10.9319 -4.90529 -4.78465
upperneck 22.1118 -8.66444 11.3833
head 9.48592 -3.27992 3.72818
rclavicle -1.03368e-014 -6.36111e-015
rhumerus 22.5568 10.4032 -38.146
rradius 27.2653
rwrist 23.8549
rhand -10.0591 -52.3087
rfingers 7.12502
rthumb -164.073 -261.674
lclavicle -1.03368e-014 -6.36111e-015
lhumerus 22.1643 -12.0474 59.779
lradius 27.2376
lwrist -32.6618
lhand -6.11012 -40.8407
lfingers 7.12502
lthumb 19.7265 -11.8217
rfemur 15.3957 17.7422 30.1522
rtibia 12.1536
rfoot -16.1128 -11.6359
rtoes 3.25312
lfemur -22.0039 -24.0011 -15.1534
ltibia 29.1268
lfoot -29.147 24.0467
ltoes -17.6351
1378
root 25.7743 15.6393 -29.0613 357.082 8.35449 5.60569
lowerback 4.22409 -2.61738 3.57523
upperback -6.63755 -2.82246 4.42261
thorax -9.36278 -1.43313 3.05298
lowerneck -10.8756 -4.94215 -4.79632
upperneck 22.1955 -8.71352 11.3118
head 9.50584 -3.31254 3.70107
rclavicle -2.06736e-014 -6.36111e-015
rhumerus 22.396 12.4544 -36.6642
rradius 28.2611
rwrist 21.8715
rhand -10.4754 -53.2232
rfingers 7.12502
rthumb -164.474 -262.62
lclavicle -2.06736e-014 -6.36111e-015
lhumerus 22.306 -10.6207 60.897
lradius 26.5957
lwrist -34.3936
lhand -6.11636 -41.3037
lfingers 7.12502
lthumb 19.7205 -12.284
rfemur 15.7295 17.8289 30.068
rtibia 11.5728
rfoot -15.6301 -11.3162
rtoes 1.86048
lfemur -22.6492 -25.1036 -14.5154
ltibia 28.8243
lfoot -28.5406 25.9317
ltoes -25.5246
1379
root 25.807 15.6362 -28.9787 357.103 7.4252 5.49895
lowerback 4.55613 -2.65702 3.57599
upperback -6.86024 -2.83975 4.47393
thorax -9.80596 -1.43732 3.1458
lowerneck -10.7062 -4.85926 -4.96427
upperneck 22.4672 -8.60267 11.3045
head 9.56418 -3.27642 3.74966
rclavicle -6.36111e-014 -3.49861e-014
rhumerus 22.5979 11.6215 -37.926
rradius 27.6031
rwrist 23.7811
rhand -10.5384 -53.3999
rfingers 7.12502
rthumb -164.535 -262.801
lclavicle -6.36111e-014 -3.49861e-014
lhumerus 21.8426 -10.2596 61.2463
lradius 26.5
lwrist -34.8416
lhand -6.09074 -41.3269
lfingers 7.12502
lthumb 19.7451 -12.3098
rfemur 16.3668 17.8773 30.016
rtibia 10.7456
rfoot -15.1845 -10.7937
rtoes 0.878915
lfemur -23.0363 -25.9938 -14.0211
ltibia 28.603
lfoot -27.7216 25.8233
ltoes -27.16
1380
root 25.8377 15.6384 -28.8897 357.172 6.39241 5.30515
lowerback 4.25224 -2.60102 3.69942
upperback -6.75231 -2.78196 4.46432
thorax -9.513 -1.42144 3.03318
lowerneck -10.6949 -4.81606 -4.93266
upperneck 22.3773 -8.55099 11.3442
head 9.52605 -3.25101 3.76289
rclavicle -1.90833e-014 -6.36111e-015
rhumerus 22.985 10.1078 -39.3725
rradius 26.7833
rwrist 25.5893
rhand -9.85078 -53.9661
rfingers 7.12502
rthumb -163.873 -263.315
lclavicle -1.90833e-014 -6.36111e-015
lhumerus 22.0137 -9.77905 61.5031
lradius 26.3958
lwrist -35.3664
lhand -5.91142 -41.5298
lfingers 7.12502
lthumb 19.9175 -12.5305
rfemur 16.9944 18.0289 30.0695
rtibia 9.8522
rfoot -14.7054 -10.1785
rtoes 1.60204
lfemur -23.4812 -26.859 -13.3696
ltibia 28.4216
lfoot -28.7608 25.3202
ltoes -19.0451
